<?xml version="1.0" encoding="utf-8"?>
<!-- Generator: Adobe Illustrator 27.8.1, SVG Export Plug-In . SVG Version: 6.00 Build 0)  -->
<svg version="1.1" id="Capa_1" xmlns="http://www.w3.org/2000/svg" xmlns:xlink="http://www.w3.org/1999/xlink" x="0px" y="0px"
	 viewBox="0 0 448 512" style="enable-background:new 0 0 448 512;" xml:space="preserve">
<style type="text/css">
	.st0{fill:#FFFFFF;}
</style>
<path class="st0" d="M0,112c0-9.7,14.3-17.5,32-17.5h384c17.7,0,32,7.8,32,17.5s-14.3,17.5-32,17.5H32C14.3,129.5,0,121.7,0,112z
	 M0,256c0-9.7,14.3-17.5,32-17.5h384c17.7,0,32,7.8,32,17.5s-14.3,17.5-32,17.5H32C14.3,273.5,0,265.7,0,256z M448,416
	c0,9.7-14.3,17.5-32,17.5H32c-17.7,0-32-7.8-32-17.5s14.3-17.5,32-17.5h384C433.7,398.5,448,406.3,448,416z"/>
</svg>
