<?xml version="1.0" encoding="UTF-8"?>
<svg id="Capa_2" data-name="Capa 2" xmlns="http://www.w3.org/2000/svg" xmlns:xlink="http://www.w3.org/1999/xlink" viewBox="0 0 401.91 203.65">
  <defs>
    <style>
      .cls-1 {
        fill: url(#Degradado_sin_nombre_186);
        stroke-width: 0px;
      }
    </style>
    <linearGradient id="Degradado_sin_nombre_186" data-name="Degradado sin nombre 186" x1="0" y1="101.82" x2="401.91" y2="101.82" gradientUnits="userSpaceOnUse">
      <stop offset="0" stop-color="#f72585"/>
      <stop offset=".05" stop-color="#f44182"/>
      <stop offset=".1" stop-color="#f15a7f"/>
      <stop offset=".17" stop-color="#ef6d7d"/>
      <stop offset=".24" stop-color="#ee7b7c"/>
      <stop offset=".33" stop-color="#ed837b"/>
      <stop offset=".49" stop-color="#ed867b"/>
      <stop offset=".52" stop-color="#ed8877"/>
      <stop offset=".83" stop-color="#ed9f53"/>
      <stop offset="1" stop-color="#eda846"/>
    </linearGradient>
  </defs>
  <g id="Capa_2-2" data-name="Capa 2">
    <path class="cls-1" d="m199.23,203.65c-63.42,0-112.49-9.99-147.19-29.96C17.35,153.71,0,129.54,0,101.17S17.58,48.25,52.74,28.95C87.89,9.65,137.99,0,203.03,0s115.3,10.3,148.74,30.9c33.43,20.6,50.15,44.17,50.15,70.71,0,28.66-17.24,52.83-51.71,72.51-34.47,19.68-84.8,29.53-150.98,29.53Zm3.1-165.87c-69.74-.22-146.43,21.33-146.43,63.97s61.7,64.8,146.43,64.12c85.32-.69,145.02-21.32,145.02-63.97s-75.75-63.9-145.02-64.12Z"/>
  </g>
</svg>